<?xml version="1.0" encoding="utf-8"?>
<!-- Generator: Adobe Illustrator 16.0.0, SVG Export Plug-In . SVG Version: 6.00 Build 0)  -->
<!DOCTYPE svg PUBLIC "-//W3C//DTD SVG 1.1//EN" "http://www.w3.org/Graphics/SVG/1.1/DTD/svg11.dtd">
<svg version="1.1" id="Layer_1" xmlns="http://www.w3.org/2000/svg" xmlns:xlink="http://www.w3.org/1999/xlink" x="0px" y="0px"
	 width="1280px" height="300px" viewBox="0 0 1280 300" enable-background="new 0 0 1280 300" xml:space="preserve">
<path fill="#FF1600" stroke="#000000" stroke-miterlimit="10" d="M1279.5,0.5H739.294c14.555,4.439,25.146,17.97,25.146,33.979
	c0,19.617-15.904,35.521-35.521,35.521c-19.619,0-35.522-15.904-35.522-35.521c0-16.008,10.59-29.539,25.146-33.979H-0.5v300h31.986
	c-1.351-3.755-2.091-7.802-2.091-12.021c0-19.619,15.904-35.522,35.522-35.522s35.522,15.903,35.522,35.522
	c0,4.22-0.74,8.267-2.091,12.021h735.359c-6.373-6.421-10.313-15.261-10.313-25.021c0-19.619,15.903-35.522,35.522-35.522
	c19.617,0,35.521,15.903,35.521,35.522c0,9.761-3.939,18.601-10.313,25.021h278.184c-3.118-5.284-4.914-11.441-4.914-18.021
	c0-19.619,15.903-35.522,35.522-35.522c19.617,0,35.521,15.903,35.521,35.522c0,6.58-1.796,12.737-4.914,18.021h55.975V0.5z
	 M64.917,91c-19.618,0-35.522-15.904-35.522-35.522s15.904-35.522,35.522-35.522s35.522,15.904,35.522,35.522S84.536,91,64.917,91z
	 M245.917,204c-19.618,0-35.522-15.904-35.522-35.521c0-19.619,15.904-35.522,35.522-35.522s35.522,15.903,35.522,35.522
	C281.439,188.096,265.536,204,245.917,204z M394.917,293c-19.618,0-35.522-15.904-35.522-35.521
	c0-19.619,15.904-35.522,35.522-35.522s35.522,15.903,35.522,35.522C430.439,277.096,414.536,293,394.917,293z M449.917,106
	c-19.618,0-35.522-15.904-35.522-35.522s15.904-35.522,35.522-35.522s35.522,15.904,35.522,35.522S469.536,106,449.917,106z
	 M520.917,253c-19.618,0-35.522-15.904-35.522-35.521c0-19.619,15.904-35.522,35.522-35.522s35.522,15.903,35.522,35.522
	C556.439,237.096,540.536,253,520.917,253z M591.917,142c-19.618,0-35.522-15.904-35.522-35.521
	c0-19.619,15.904-35.522,35.522-35.522s35.522,15.903,35.522,35.522C627.439,126.096,611.536,142,591.917,142z M728.918,229
	c-19.619,0-35.522-15.904-35.522-35.521c0-19.619,15.903-35.522,35.522-35.522c19.617,0,35.521,15.903,35.521,35.522
	C764.439,213.096,748.535,229,728.918,229z M858.918,142c-19.619,0-35.522-15.904-35.522-35.521
	c0-19.619,15.903-35.522,35.522-35.522c19.617,0,35.521,15.903,35.521,35.522C894.439,126.096,878.535,142,858.918,142z
	 M1004.918,240c-19.619,0-35.522-15.904-35.522-35.521c0-19.619,15.903-35.522,35.522-35.522c19.617,0,35.521,15.903,35.521,35.522
	C1040.439,224.096,1024.535,240,1004.918,240z M1011.918,82c-19.619,0-35.522-15.904-35.522-35.521
	c0-19.619,15.903-35.522,35.522-35.522c19.617,0,35.521,15.903,35.521,35.522C1047.439,66.096,1031.535,82,1011.918,82z
	 M1114.918,204c-19.619,0-35.522-15.904-35.522-35.521c0-19.619,15.903-35.522,35.522-35.522c19.617,0,35.521,15.903,35.521,35.522
	C1150.439,188.096,1134.535,204,1114.918,204z M1201.918,106c-19.619,0-35.522-15.904-35.522-35.521
	c0-19.619,15.903-35.522,35.522-35.522c19.617,0,35.521,15.903,35.521,35.522C1237.439,90.096,1221.535,106,1201.918,106z"/>
<circle fill="#F2F2F2" stroke="#000000" stroke-miterlimit="10" cx="64.917" cy="55.478" r="35.522"/>
<circle fill="#F2F2F2" stroke="#000000" stroke-miterlimit="10" cx="449.917" cy="70.478" r="35.522"/>
<path fill="#F2F2F2" stroke="#000000" stroke-miterlimit="10" d="M64.917,252.956c-19.618,0-35.522,15.903-35.522,35.522
	c0,4.22,0.74,8.267,2.091,12.021h66.862c1.351-3.755,2.091-7.802,2.091-12.021C100.439,268.859,84.536,252.956,64.917,252.956z"/>
<circle fill="#F2F2F2" stroke="#000000" stroke-miterlimit="10" cx="245.917" cy="168.478" r="35.522"/>
<circle fill="#F2F2F2" stroke="#000000" stroke-miterlimit="10" cx="394.917" cy="257.478" r="35.522"/>
<circle fill="#F2F2F2" stroke="#000000" stroke-miterlimit="10" cx="520.917" cy="217.478" r="35.522"/>
<circle fill="#F2F2F2" stroke="#000000" stroke-miterlimit="10" cx="591.917" cy="106.478" r="35.522"/>
<path fill="#F2F2F2" stroke="#000000" stroke-miterlimit="10" d="M693.396,34.479c0,19.617,15.903,35.521,35.522,35.521
	c19.617,0,35.521-15.904,35.521-35.521c0-16.008-10.591-29.539-25.146-33.979h-20.753C703.985,4.939,693.396,18.47,693.396,34.479z"
	/>
<circle fill="#F2F2F2" stroke="#000000" stroke-miterlimit="10" cx="728.918" cy="193.478" r="35.522"/>
<path fill="#F2F2F2" stroke="#000000" stroke-miterlimit="10" d="M858.918,239.956c-19.619,0-35.522,15.903-35.522,35.522
	c0,9.761,3.939,18.601,10.313,25.021h50.418c6.374-6.421,10.313-15.261,10.313-25.021
	C894.439,255.859,878.535,239.956,858.918,239.956z"/>
<circle fill="#F2F2F2" stroke="#000000" stroke-miterlimit="10" cx="858.918" cy="106.478" r="35.522"/>
<circle fill="#F2F2F2" stroke="#000000" stroke-miterlimit="10" cx="1011.918" cy="46.478" r="35.522"/>
<circle fill="#F2F2F2" stroke="#000000" stroke-miterlimit="10" cx="1004.918" cy="204.478" r="35.522"/>
<path fill="#F2F2F2" stroke="#000000" stroke-miterlimit="10" d="M1192.918,246.956c-19.619,0-35.522,15.903-35.522,35.522
	c0,6.58,1.796,12.737,4.914,18.021h61.216c3.118-5.284,4.914-11.441,4.914-18.021
	C1228.439,262.859,1212.535,246.956,1192.918,246.956z"/>
<circle fill="#F2F2F2" stroke="#000000" stroke-miterlimit="10" cx="1201.918" cy="70.478" r="35.522"/>
<circle fill="#F2F2F2" stroke="#000000" stroke-miterlimit="10" cx="1114.918" cy="168.478" r="35.522"/>
</svg>
