<?xml version="1.0" encoding="utf-8"?>
<!-- Generator: Adobe Illustrator 16.0.0, SVG Export Plug-In . SVG Version: 6.00 Build 0)  -->
<!DOCTYPE svg PUBLIC "-//W3C//DTD SVG 1.1//EN" "http://www.w3.org/Graphics/SVG/1.1/DTD/svg11.dtd">
<svg version="1.1" id="Layer_1" xmlns="http://www.w3.org/2000/svg" xmlns:xlink="http://www.w3.org/1999/xlink" x="0px" y="0px"
	 width="217.379px" height="80px" viewBox="100.448 149.5 217.379 80" enable-background="new 100.448 149.5 217.379 80"
	 xml:space="preserve">
<ellipse fill="#282829" cx="313.367" cy="198.367" rx="2.242" ry="1.805"/>
<ellipse fill="#282829" cx="313.367" cy="202.586" rx="4.222" ry="3.397"/>
<path fill="#CC2127" d="M195.884,167.928c0,0.756-0.036,1.477-0.106,2.162c-0.071,0.686-0.177,1.348-0.319,1.984
	c-0.142,0.639-0.332,1.282-0.567,1.933c-0.236,0.65-0.52,1.317-0.851,2.002c-0.332,0.732-0.934,1.607-1.808,2.623
	c-0.875,1.016-1.92,2.068-3.137,3.155c-1.217,1.087-2.552,2.161-4.004,3.225c-1.454,1.063-2.924,2.021-4.413,2.872
	c-1.489,0.851-2.948,1.536-4.377,2.054c-1.43,0.52-2.724,0.781-3.881,0.781c-1.583,0-2.965-0.266-4.147-0.798
	c-1.182-0.531-2.162-1.228-2.941-2.091c-0.779-0.863-1.364-1.849-1.755-2.959c-0.389-1.111-0.584-2.232-0.584-3.367
	c0-0.756,0.094-1.619,0.284-2.588c0.189-0.969,0.437-1.972,0.744-3.013c0.307-1.04,0.673-2.102,1.099-3.188
	c0.426-1.086,0.874-2.126,1.347-3.12c0.473-0.992,0.957-1.914,1.454-2.765c0.496-0.851,0.98-1.571,1.453-2.162
	c0.827-1.04,1.825-2.056,2.995-3.048c1.17-0.992,2.451-1.872,3.846-2.64c1.394-0.768,2.888-1.388,4.483-1.861
	c1.595-0.473,3.243-0.709,4.944-0.709c1.276,0,2.528,0.313,3.757,0.939c1.228,0.626,2.321,1.471,3.279,2.534
	c0.956,1.063,1.73,2.292,2.321,3.686C195.588,164.963,195.884,166.417,195.884,167.928z"/>
<path fill="#205D2E" d="M159.284,162.945c0,1.164-0.317,2.154-0.951,2.968c-0.634,0.816-1.533,1.223-2.698,1.223
	c-0.439,0-0.926-0.2-1.455-0.601c-0.53-0.4-1.016-0.795-1.456-1.184c-0.414-0.413-0.892-0.776-1.435-1.086
	c-0.543-0.311-1.139-0.466-1.785-0.466c-3.183,0-7.284,1.062-12.304,3.183c-2.51,1.086-4.851,2.322-7.024,3.707
	c-2.174,1.385-4.308,2.943-6.403,4.677c-2.097,1.734-4.083,3.655-5.958,5.763c-1.876,2.109-3.526,4.211-4.949,6.307
	c-1.32,1.889-2.354,4.178-3.105,6.869c-0.699,2.639-1.047,5.214-1.047,7.722c0,1.19,0.608,2.434,1.824,3.729
	c1.216,1.241,2.471,2.042,3.765,2.404c1.577,0.413,3.454,0.62,5.627,0.62c1.63,0.026,3.377-0.175,5.24-0.601
	c1.863-0.428,3.726-1.01,5.588-1.748c1.862-0.735,3.673-1.576,5.434-2.521c1.758-0.943,3.362-1.934,4.813-2.969
	c0.517-0.412,1.066-0.899,1.649-1.455c0.582-0.556,1.17-1.209,1.766-1.959c0.621-0.752,1.144-1.45,1.571-2.097
	c0.426-0.646,0.77-1.255,1.028-1.824c0.181-0.257,0.271-0.595,0.271-1.009c0-0.389-0.083-0.873-0.251-1.456
	c-0.169-0.582-0.252-1.054-0.252-1.417c0-0.957,1.165-1.436,3.493-1.436c0.725,0,1.811,0.543,3.26,1.629
	c1.449,1.087,2.173,1.928,2.173,2.522c0,0.078-0.802,1.722-2.406,4.93c-0.802,1.604-1.417,2.846-1.843,3.726
	c-0.427,0.879-0.679,1.41-0.757,1.592c-0.439,1.008-0.879,2.142-1.318,3.396c-0.441,1.254-0.881,2.646-1.32,4.172
	c-0.906,3.08-1.358,5.265-1.358,6.56c-0.052,0.285-0.019,0.563,0.097,0.834c0.117,0.271,0.247,0.519,0.388,0.736
	c0.142,0.221,0.285,0.415,0.427,0.583s0.214,0.277,0.214,0.33c0,0.62-0.112,1.197-0.331,1.726c-0.22,0.531-0.518,0.996-0.893,1.397
	s-0.83,0.72-1.358,0.952c-0.53,0.232-1.106,0.35-1.728,0.35c-1.345,0-2.251-0.461-2.717-1.379c-0.465-0.918-0.698-2.152-0.698-3.705
	c0-0.414,0.019-0.816,0.058-1.205c0.039-0.388,0.083-0.773,0.135-1.162c0.155-0.804,0.35-1.694,0.583-2.681
	c0.129-0.489,0.245-0.925,0.349-1.299s0.181-0.692,0.233-0.95c0.362-1.449,0.543-2.433,0.543-2.949c0-0.259-0.052-0.391-0.156-0.391
	c-0.542,0-2.237,0.714-5.083,2.137c-1.448,0.697-2.607,1.254-3.474,1.668c-0.867,0.414-1.455,0.687-1.765,0.815
	c-4.502,1.838-8.746,2.756-12.73,2.756c-2.562,0-5.265-0.519-8.112-1.553c-2.897-1.062-5.33-2.575-7.295-4.541
	c-1.967-1.992-2.95-4.294-2.95-6.909c0-7.658,3.531-15.587,10.596-23.79c3.104-3.596,6.131-6.637,9.081-9.12
	c2.897-2.407,6.443-4.684,10.635-6.831c0.671-0.363,1.436-0.729,2.29-1.104s1.797-0.758,2.833-1.146
	c2.095-0.801,4.178-1.5,6.249-2.096c2.07-0.595,3.998-1.009,5.782-1.242c1.112-0.155,2.782-0.232,5.007-0.232
	c0.802-0.025,1.592,0.123,2.368,0.446c0.776,0.324,1.461,0.776,2.057,1.359c0.595,0.582,1.073,1.248,1.436,1.999
	C159.141,161.368,159.31,162.144,159.284,162.945z"/>
<path fill="#73C057" d="M191.665,194.889c0,0.337-0.151,0.624-0.455,0.859c-0.303,0.236-0.702,0.455-1.195,0.657
	c-0.495,0.202-1.051,0.388-1.668,0.556c-0.618,0.169-1.23,0.354-1.836,0.556c-1.461,0.45-2.96,1.095-4.498,1.937
	c-1.539,0.843-3.14,2.106-4.801,3.79c-1.304,1.326-2.421,2.713-3.353,4.16c-0.933,1.449-1.735,2.981-2.409,4.6
	c-0.674,1.618-1.246,3.33-1.719,5.139c-0.471,1.81-0.875,3.734-1.213,5.777c-0.247,0.27-0.46,0.506-0.64,0.708
	c-0.18,0.202-0.37,0.37-0.573,0.505c-0.201,0.135-0.433,0.242-0.69,0.32c-0.257,0.078-0.589,0.117-0.993,0.117
	c-0.585,0-1.04-0.252-1.365-0.758c-0.325-0.506-0.567-1.101-0.725-1.785c-0.158-0.686-0.252-1.375-0.286-2.072
	c-0.033-0.695-0.05-1.246-0.05-1.65c0-0.426,0.011-0.971,0.033-1.634s0.051-1.387,0.084-2.173c0.034-0.787,0.073-1.602,0.118-2.443
	s0.084-1.656,0.118-2.441c0.033-0.786,0.062-1.512,0.084-2.174s0.033-1.207,0.033-1.635c0-1.031-0.017-1.887-0.05-2.561
	c-0.034-0.674-0.073-1.246-0.118-1.719c-0.045-0.472-0.102-0.893-0.168-1.264c-0.068-0.37-0.124-0.774-0.169-1.213
	c-0.045-0.438-0.084-0.954-0.118-1.55c-0.033-0.595-0.051-1.364-0.051-2.308c0-0.472,0.102-0.927,0.304-1.364
	c0.202-0.438,0.466-0.82,0.792-1.146c0.325-0.326,0.695-0.584,1.111-0.775c0.416-0.19,0.826-0.286,1.23-0.286
	c0.471,0,0.909,0.101,1.313,0.303c0.404,0.202,0.752,0.46,1.044,0.775c0.292,0.315,0.517,0.68,0.674,1.095
	c0.157,0.416,0.236,0.837,0.236,1.264c0,0.854-0.057,1.87-0.168,3.049c-0.113,1.18-0.231,2.381-0.354,3.605
	c-0.123,1.225-0.23,2.402-0.319,3.537c-0.091,1.135-0.124,2.084-0.102,2.847c0.966-1.841,2.083-3.704,3.353-5.592
	c1.269-1.887,2.684-3.6,4.245-5.139c1.561-1.538,3.251-2.796,5.07-3.773c1.819-0.977,3.762-1.465,5.828-1.465
	c0.404,0,0.865,0.045,1.382,0.135c0.517,0.09,0.999,0.248,1.448,0.472c0.449,0.225,0.826,0.511,1.129,0.859
	C191.514,193.94,191.665,194.373,191.665,194.889z"/>
<path fill="#205D2E" d="M227.378,208.838c-1.752,1.369-3.628,2.673-5.627,3.908c-4.703,2.904-2.438,1.59-6.03,3.268
	c-2.021,0.943-3.998,1.69-5.931,2.24c-1.933,0.551-3.705,0.826-5.322,0.826c-1.819,0-3.438-0.264-4.852-0.792
	c-1.416-0.528-2.617-1.353-3.605-2.478c-0.988-1.123-1.741-2.555-2.258-4.295s-0.774-3.824-0.774-6.25
	c0-2.224,0.202-4.33,0.606-6.316c0.404-1.988,0.96-3.824,1.668-5.509c0.707-1.685,1.527-3.206,2.459-4.565
	c0.932-1.358,1.932-2.51,2.999-3.453c1.066-0.943,2.161-1.668,3.284-2.173c1.123-0.506,2.226-0.758,3.303-0.758
	c1.078,0,2.017,0.152,2.813,0.455c0.797,0.304,1.459,0.725,1.988,1.264c0.526,0.539,0.926,1.179,1.194,1.92
	c0.269,0.741,0.404,1.55,0.404,2.426c0,0.584-0.117,1.28-0.354,2.089c-0.234,0.809-0.668,1.741-1.297,2.796
	c-0.629,1.056-1.494,2.24-2.594,3.555c-1.102,1.313-2.518,2.757-4.246,4.329c-0.494,0.448-1.027,0.909-1.6,1.381
	c-0.573,0.474-1.162,0.933-1.771,1.382c-0.604,0.45-1.2,0.876-1.785,1.28c-0.584,0.403-1.123,0.753-1.617,1.045
	c0.045,1.123,0.213,2.155,0.506,3.101c0.291,0.942,0.752,1.752,1.381,2.426c0.629,0.674,1.45,1.194,2.459,1.565
	c1.012,0.37,2.258,0.556,3.74,0.556c1.571,0,3.244-0.273,5.02-0.824s3.561-1.247,5.357-2.09c1.797-0.842,3.549-1.769,5.256-2.779
	c1.707-1.01,3.279-1.987,4.717-2.932c0.111-0.066,0.253-0.15,0.421-0.252c0.169-0.102,0.286-0.151,0.354-0.151
	c0.201,0,0.387,0.124,0.556,0.37c0.168,0.248,0.253,0.584,0.253,1.012c0,0.135-0.04,0.324-0.118,0.572
	c-0.079,0.248-0.175,0.5-0.286,0.758c-0.113,0.259-0.23,0.488-0.354,0.691C227.574,208.635,227.467,208.77,227.378,208.838z
	 M208.441,189.835c0-0.786-0.213-1.409-0.64-1.87s-0.966-0.691-1.616-0.691c-0.226,0.022-0.5,0.107-0.826,0.252
	c-0.325,0.146-0.668,0.337-1.026,0.573c-0.36,0.235-0.708,0.511-1.045,0.825c-0.337,0.315-0.618,0.64-0.843,0.977
	c-1.102,1.572-1.993,3.33-2.678,5.273c-0.686,1.943-1.141,4.262-1.364,6.957c1.773-1.348,3.296-2.6,4.564-3.757
	c1.27-1.156,2.309-2.24,3.117-3.251c0.809-1.011,1.402-1.948,1.785-2.813C208.252,191.447,208.441,190.622,208.441,189.835z"/>
<path fill="#205D2E" d="M267.066,195.597c0,0.359-0.248,0.955-0.741,1.786c-0.898,1.438-2.017,2.987-3.353,4.649
	c-1.336,1.663-2.818,3.329-4.447,5.004c-1.629,1.674-3.357,3.284-5.188,4.834c-1.831,1.551-3.688,2.915-5.575,4.094
	c-1.888,1.181-3.752,2.129-5.593,2.849c-1.843,0.719-3.595,1.078-5.256,1.078h-0.235c-3.842,0-6.717-1.102-8.625-3.304
	c-1.91-2.201-2.863-5.267-2.863-9.196c0-1.572,0.123-3.234,0.369-4.986c0.248-1.752,0.68-3.532,1.297-5.34
	c0.619-1.808,1.461-3.616,2.527-5.425c1.066-1.808,2.42-3.554,4.061-5.239c1.234-1.235,2.537-2.184,3.908-2.847
	c1.369-0.662,2.662-0.994,3.875-0.994c0.178,0,0.414,0.045,0.707,0.135c0.291,0.09,0.59,0.208,0.893,0.354
	c0.304,0.146,0.595,0.326,0.876,0.539c0.28,0.213,0.522,0.443,0.726,0.69c0.629,0.809,1.088,1.583,1.381,2.325
	c0.291,0.741,0.438,1.606,0.438,2.594c0,1.303-0.181,2.488-0.539,3.555s-0.876,2.105-1.55,3.116
	c-0.674,1.011-1.506,2.027-2.493,3.049s-2.123,2.128-3.401,3.318c-0.429,0.404-0.934,0.854-1.518,1.349s-1.213,1.01-1.887,1.549
	s-1.37,1.103-2.09,1.687c-0.719,0.584-1.426,1.156-2.123,1.718c0.181,4.021,2.416,6.03,6.705,6.03c2.381,0,4.92-0.629,7.614-1.887
	c1.325-0.629,2.562-1.354,3.706-2.174c1.146-0.818,2.27-1.654,3.369-2.51c0.539-0.428,1.134-0.932,1.785-1.518
	c0.65-0.584,1.318-1.201,2.005-1.853s1.37-1.302,2.056-1.954c0.686-0.65,1.33-1.27,1.938-1.854c0.381-0.381,0.791-0.785,1.229-1.212
	c0.438-0.426,0.902-0.887,1.396-1.381l1.82-1.819c1.1-0.965,1.896-1.449,2.392-1.449
	C266.932,194.957,267.066,195.17,267.066,195.597z M241.124,190.543c0-0.674-0.181-1.264-0.539-1.769
	c-0.358-0.506-0.798-0.758-1.313-0.758c-0.383,0-0.871,0.157-1.465,0.472c-0.597,0.315-1.23,0.876-1.904,1.685
	c-1.37,1.663-2.539,3.667-3.504,6.014c-0.967,2.347-1.641,4.958-2.021,7.833c1.416-1.146,2.611-2.168,3.589-3.065
	c0.978-0.898,1.858-1.74,2.646-2.527c0.539-0.539,1.072-1.112,1.601-1.718c0.526-0.606,1.011-1.247,1.448-1.92
	c0.438-0.674,0.792-1.37,1.063-2.089C240.988,191.98,241.124,191.262,241.124,190.543z"/>
<path fill="#205D2E" d="M307.866,210.994c0,0.785-0.271,1.65-0.81,2.594c-0.539,0.944-1.331,1.825-2.376,2.645
	c-1.044,0.82-2.341,1.507-3.892,2.057c-1.549,0.55-3.324,0.825-5.322,0.825c-2.021,0-3.808-0.354-5.357-1.063
	c-1.549-0.706-2.857-1.813-3.924-3.317c-1.067-1.506-1.877-3.414-2.427-5.729c-0.551-2.313-0.825-5.076-0.825-8.288
	c-0.359,0.226-0.888,0.681-1.584,1.364c-0.695,0.686-1.478,1.494-2.342,2.426c-0.863,0.934-1.764,1.938-2.695,3.016
	c-0.931,1.078-1.818,2.117-2.66,3.117c-0.844,1-1.596,1.926-2.258,2.779s-1.151,1.516-1.467,1.987
	c-0.562,0.854-1.01,1.565-1.348,2.14c-0.336,0.572-0.65,1.033-0.943,1.381c-0.291,0.35-0.601,0.596-0.926,0.741
	c-0.326,0.146-0.747,0.22-1.264,0.22c-0.473,0-0.91-0.072-1.314-0.22c-0.404-0.146-0.752-0.337-1.044-0.571
	c-0.292-0.236-0.517-0.5-0.674-0.793c-0.157-0.291-0.235-0.584-0.235-0.875c0-0.404,0.021-0.871,0.066-1.398
	s0.105-1.066,0.186-1.617s0.164-1.096,0.254-1.635c0.09-0.538,0.168-1.021,0.234-1.448c0.225-1.188,0.473-2.582,0.742-4.179
	c0.27-1.594,0.482-3.536,0.64-5.827c0.112-1.46,0.22-2.841,0.32-4.144c0.101-1.302,0.151-2.662,0.151-4.077
	c0-0.674,0.078-1.325,0.235-1.954c0.156-0.628,0.398-1.185,0.724-1.668c0.326-0.482,0.729-0.87,1.213-1.162
	c0.484-0.292,1.063-0.438,1.736-0.438c0.493,0,0.897,0.067,1.213,0.202c0.314,0.135,0.562,0.315,0.74,0.539
	c0.18,0.225,0.299,0.478,0.354,0.758c0.056,0.28,0.085,0.567,0.085,0.859c0,0.337-0.023,0.668-0.068,0.994
	c-0.045,0.326-0.066,0.612-0.066,0.859c0,0.067-0.033,0.32-0.102,0.758c-0.066,0.438-0.163,0.994-0.286,1.668
	c-0.124,0.674-0.27,1.427-0.438,2.257c-0.169,0.831-0.343,1.663-0.521,2.493c-0.383,1.73-0.657,3.117-0.825,4.161
	c-0.168,1.045-0.293,1.943-0.371,2.695c-0.078,0.753-0.135,1.455-0.168,2.105c-0.033,0.651-0.106,1.438-0.22,2.358
	c0.494-0.674,1.19-1.511,2.089-2.511c0.898-0.999,1.83-2.032,2.797-3.1c0.965-1.066,1.893-2.101,2.779-3.101
	c0.887-0.999,1.59-1.836,2.105-2.51c0.674-0.898,1.357-1.718,2.056-2.459c0.695-0.741,1.414-1.381,2.156-1.92
	c0.739-0.539,1.526-0.96,2.356-1.264c0.832-0.303,1.719-0.455,2.662-0.455c0.651,0,1.066,0.157,1.246,0.472
	c0.18,0.315,0.27,0.696,0.27,1.146c0,0.18-0.004,0.365-0.017,0.556c-0.012,0.191-0.017,0.376-0.017,0.556
	c0,0.18-0.033,0.5-0.102,0.96c-0.066,0.461-0.136,0.955-0.201,1.482c-0.068,0.528-0.131,1.028-0.187,1.5
	c-0.058,0.472-0.084,0.796-0.084,0.977c0,1.954,0.146,3.746,0.438,5.374c0.291,1.628,0.764,3.032,1.414,4.211
	c0.651,1.18,1.518,2.096,2.596,2.746s2.402,0.979,3.975,0.979c1.012,0,1.904-0.063,2.68-0.187c0.774-0.123,1.517-0.332,2.224-0.623
	c0.708-0.292,1.427-0.662,2.156-1.112c0.729-0.449,1.556-1.011,2.477-1.685c0.225-0.181,0.449-0.349,0.674-0.507
	c0.181-0.11,0.359-0.223,0.539-0.336c0.181-0.112,0.325-0.168,0.438-0.168L307.866,210.994z"/>
<path fill="#CC2127" d="M308.875,201.805c0,2.307,1.871,4.18,4.179,4.18v-8.358C310.746,197.625,308.875,199.496,308.875,201.805z"
	/>
<path fill="#CC2127" d="M317.827,201.805c0-2.309-1.872-4.18-4.18-4.18v8.357C315.955,205.982,317.827,204.111,317.827,201.805z"/>
<circle fill="#3B363F" cx="312.141" cy="205.031" r="0.469"/>
<circle fill="#3B363F" cx="309.953" cy="203.125" r="0.469"/>
<circle fill="#3B363F" cx="310.422" cy="199.531" r="0.469"/>
<circle fill="#3B363F" cx="311.484" cy="201.65" r="0.828"/>
<circle fill="#3B363F" cx="311.875" cy="198.719" r="0.469"/>
<circle fill="#3B363F" cx="314.844" cy="204.844" r="0.469"/>
<circle fill="#3B363F" cx="316.547" cy="203.344" r="0.688"/>
<circle fill="#3B363F" cx="314.744" cy="201.979" r="0.557"/>
<circle fill="#3B363F" cx="316.547" cy="200.484" r="0.469"/>
<circle fill="#3B363F" cx="314.744" cy="198.719" r="0.469"/>
</svg>
